<?xml version="1.0" encoding="UTF-8" standalone="no"?>
<!-- Created with Inkscape (http://www.inkscape.org/) -->

<svg
   xmlns:dc="http://purl.org/dc/elements/1.1/"
   xmlns:cc="http://creativecommons.org/ns#"
   xmlns:rdf="http://www.w3.org/1999/02/22-rdf-syntax-ns#"
   xmlns:svg="http://www.w3.org/2000/svg"
   xmlns="http://www.w3.org/2000/svg"
   xmlns:sodipodi="http://sodipodi.sourceforge.net/DTD/sodipodi-0.dtd"
   xmlns:inkscape="http://www.inkscape.org/namespaces/inkscape"
   width="744.09448819"
   height="1052.3622047"
   id="svg2"
   version="1.1"
   inkscape:version="0.48.4 r9939"
   sodipodi:docname="references.svg">
  <defs
     id="defs4" />
  <sodipodi:namedview
     id="base"
     pagecolor="#ffffff"
     bordercolor="#666666"
     borderopacity="1.0"
     inkscape:pageopacity="0.0"
     inkscape:pageshadow="2"
     inkscape:zoom="0.85130927"
     inkscape:cx="349.34191"
     inkscape:cy="749.79892"
     inkscape:document-units="px"
     inkscape:current-layer="layer1"
     showgrid="false"
     inkscape:window-width="1182"
     inkscape:window-height="748"
     inkscape:window-x="1982"
     inkscape:window-y="196"
     inkscape:window-maximized="0" />
  <metadata
     id="metadata7">
    <rdf:RDF>
      <cc:Work
         rdf:about="">
        <dc:format>image/svg+xml</dc:format>
        <dc:type
           rdf:resource="http://purl.org/dc/dcmitype/StillImage" />
        <dc:title></dc:title>
      </cc:Work>
    </rdf:RDF>
  </metadata>
  <style
     id="style2985"
     attr="text/css">.primary_light_1
: #8ec7d9                                                                                                                                                                                   
$primary_light_2: #73c0d9                                                                                                                                                                                   
$primary_med:     #4298b4                                                                                                                                                                                   
$primary_dark_1:  #2D7895                                                                                                                                                                                   
$primary_dark_2:  #165d75                                                                                                                                                                                   
$primary_ultralight: #e2f0f5                                                                                                                                                                                
                                                                                                                                                                                                            
// used for accents - mostly timeclock &amp; current work                                                                                                                                                       
$secondary_light_1: #ffe4A3                                                                                                                                                                                 
$secondary_light_2: #ffDA82                                                                                                                                                                                 
$secondary_med:     #ffc358                                                                                                                                                                                 
$secondary_dark_1:  #bfa461                                                                                                                                                                                 
$secondary_dark_2:  #a67d1d  </style>
  <g
     inkscape:label="Layer 1"
     inkscape:groupmode="layer"
     id="layer1">
    <rect
       style="color:#000000;fill:#165d75;fill-opacity:1;fill-rule:nonzero;stroke:none;stroke-width:0.91399997;marker:none;visibility:visible;display:inline;overflow:visible;enable-background:accumulate"
       id="rect3944"
       width="236.30882"
       height="211.39047"
       x="93.985474"
       y="103.26521"
       rx="5.5437078"
       ry="6.2295818" />
    <path
       style="color:#000000;fill:#4298b4;fill-opacity:1;stroke:none;stroke-width:0.12405167000000000;marker:none;visibility:visible;display:inline;overflow:visible;enable-background:accumulate"
       d="m 207.88779,176.43068 c -18.57683,0 -33.625,15.07942 -33.625,33.65625 0,18.57683 15.04817,33.625 33.625,33.625 18.57683,0 33.65625,-15.04817 33.65625,-33.625 0,-18.57683 -15.07942,-33.65625 -33.65625,-33.65625 z m 0,11.21875 c 12.38455,0 22.4375,10.05295 22.4375,22.4375 0,12.38455 -10.05295,22.40625 -22.4375,22.40625 -12.38455,0 -22.40625,-10.0217 -22.40625,-22.40625 0,-12.38455 10.0217,-22.4375 22.40625,-22.4375 z"
       id="use3149"
       inkscape:connector-curvature="0" />
    <path
       style="color:#000000;fill:#4298b4;fill-opacity:1;stroke:none;stroke-width:0.24810334000000001;marker:none;visibility:visible;display:inline;overflow:visible;enable-background:accumulate"
       d="m 207.88779,154.02443 c -30.96138,0 -56.0625,25.10112 -56.0625,56.0625 0,30.96138 25.10112,56.0625 56.0625,56.0625 30.96138,0 56.0625,-25.10112 56.0625,-56.0625 0,-30.96138 -25.10112,-56.0625 -56.0625,-56.0625 z m 0,11.21875 c 24.76911,0 44.84375,20.07464 44.84375,44.84375 0,24.76911 -20.07464,44.84375 -44.84375,44.84375 -24.76911,0 -44.84375,-20.07464 -44.84375,-44.84375 0,-24.76911 20.07464,-44.84375 44.84375,-44.84375 z"
       id="use3153"
       inkscape:connector-curvature="0" />
    <path
       style="color:#000000;fill:#4298b4;fill-opacity:1;stroke:none;stroke-width:0.37215501000000001;marker:none;visibility:visible;display:inline;overflow:visible;enable-background:accumulate"
       d="m 207.88779,131.58693 c -43.34594,0 -78.46875,35.15406 -78.46875,78.5 0,43.34594 35.12281,78.46875 78.46875,78.46875 43.34594,0 78.5,-35.12281 78.5,-78.46875 0,-43.34594 -35.15406,-78.5 -78.5,-78.5 z m 0,11.21875 c 37.15366,0 67.28125,30.12759 67.28125,67.28125 0,37.15366 -30.12759,67.28125 -67.28125,67.28125 -37.15366,0 -67.25,-30.12759 -67.25,-67.28125 0,-37.15366 30.09634,-67.28125 67.25,-67.28125 z"
       id="use3157"
       inkscape:connector-curvature="0" />
    <rect
       style="color:#000000;fill:#ffda82;fill-opacity:1;fill-rule:nonzero;stroke:none;stroke-width:0.91399996999999999;marker:none;visibility:visible;display:inline;overflow:visible;enable-background:accumulate"
       id="rect3944-7"
       width="236.30882"
       height="211.39047"
       x="411.6178"
       y="98.561531"
       rx="5.5437078"
       ry="6.2295818" />
    <path
       style="color:#000000;fill:#ffc358;fill-opacity:1;stroke:none;stroke-width:0.12405167000000000;marker:none;visibility:visible;display:inline;overflow:visible;enable-background:accumulate"
       d="m 525.52013,171.727 c -18.57683,0 -33.625,15.07942 -33.625,33.65625 0,18.57683 15.04817,33.625 33.625,33.625 18.57683,0 33.65625,-15.04817 33.65625,-33.625 0,-18.57683 -15.07942,-33.65625 -33.65625,-33.65625 z m 0,11.21875 c 12.38455,0 22.4375,10.05295 22.4375,22.4375 0,12.38455 -10.05295,22.40625 -22.4375,22.40625 -12.38455,0 -22.40625,-10.0217 -22.40625,-22.40625 0,-12.38455 10.0217,-22.4375 22.40625,-22.4375 z"
       id="use3149-5"
       inkscape:connector-curvature="0" />
    <path
       style="color:#000000;fill:#ffc358;fill-opacity:1;stroke:none;stroke-width:0.24810334000000001;marker:none;visibility:visible;display:inline;overflow:visible;enable-background:accumulate"
       d="m 525.52013,149.32075 c -30.96138,0 -56.0625,25.10112 -56.0625,56.0625 0,30.96138 25.10112,56.0625 56.0625,56.0625 30.96138,0 56.0625,-25.10112 56.0625,-56.0625 0,-30.96138 -25.10112,-56.0625 -56.0625,-56.0625 z m 0,11.21875 c 24.76911,0 44.84375,20.07464 44.84375,44.84375 0,24.76911 -20.07464,44.84375 -44.84375,44.84375 -24.76911,0 -44.84375,-20.07464 -44.84375,-44.84375 0,-24.76911 20.07464,-44.84375 44.84375,-44.84375 z"
       id="use3153-2"
       inkscape:connector-curvature="0" />
    <path
       style="color:#000000;fill:#ffc358;fill-opacity:1;stroke:none;stroke-width:0.37215501000000001;marker:none;visibility:visible;display:inline;overflow:visible;enable-background:accumulate"
       d="m 525.52013,126.88325 c -43.34594,0 -78.46875,35.15406 -78.46875,78.5 0,43.34594 35.12281,78.46875 78.46875,78.46875 43.34594,0 78.5,-35.12281 78.5,-78.46875 0,-43.34594 -35.15406,-78.5 -78.5,-78.5 z m 0,11.21875 c 37.15366,0 67.28125,30.12759 67.28125,67.28125 0,37.15366 -30.12759,67.28125 -67.28125,67.28125 -37.15366,0 -67.25,-30.12759 -67.25,-67.28125 0,-37.15366 30.09634,-67.28125 67.25,-67.28125 z"
       id="use3157-5"
       inkscape:connector-curvature="0" />
  </g>
</svg>
